<svg id="Layer_1" data-name="Layer 1" xmlns="http://www.w3.org/2000/svg" viewBox="0 0 134.61 127.68">
  <title>hat</title>

  <defs>
  	 <style>
	  	g {
	  		animation-name: rotate;
		 	animation-duration: 2s;
		 	animation-iteration-count: 2;
		 	transform-origin: center center; 
			
  		}
		@keyframes rotate{
			from {transform:rotate(0deg)}
			to {transform:rotate(360deg)}

			}
	  </style> 

  </defs>

  <g>
    <path d="M85.63,170a15,15,0,0,1,21.27-.78,15,15,0,0,1,20.84.31A15,15,0,0,1,150.24,171a15,15,0,0,1,19.43-3.87,14.93,14.93,0,0,1,7.51-2c.45,0,.89,0,1.33.07L138.32,95.61,125,118.69a7.86,7.86,0,1,1-7.86,7.86,7.86,7.86,0,0,1,7.86-7.86L111.68,95.61,71.31,165.53A14.91,14.91,0,0,1,85.63,170Z" transform="translate(-58.59 -68.52)" fill="#fa0006" stroke="#ddd" stroke-miterlimit="10" stroke-width="2"/>
    <polygon points="79.73 27.09 53.09 27.09 66.41 50.17 79.73 27.09" fill="#e80006" stroke="#ddd" stroke-miterlimit="10" stroke-width="2"/>
    <circle cx="66.41" cy="58.02" r="7.86" fill="#fff" stroke="#ddd" stroke-miterlimit="10" stroke-width="2"/>
    <path d="M178.51,165.22c-.44,0-.88-.07-1.33-.07a14.93,14.93,0,0,0-7.51,2A15,15,0,0,0,150.24,171a15,15,0,0,0-22.51-1.53,15,15,0,0,0-20.84-.31,15,15,0,0,0-21.27.78,15,15,0,1,0,0,20.37,15,15,0,0,0,21.27.78,15,15,0,0,0,20.84-.31,15,15,0,0,0,22.51-1.53,15,15,0,0,0,19.43,3.87,15,15,0,1,0,8.85-28Z" transform="translate(-58.59 -68.52)" fill="#fff" stroke="#ddd" stroke-miterlimit="10" stroke-width="2"/>
    <polygon points="79.73 27.09 105.15 27.09 105.15 0 34.2 0 34.2 27.09 53.09 27.09 66.41 4.01 79.73 27.09" fill="#fff"/>
    <polygon points="66.41 4.01 53.09 27.09 79.73 27.09 66.41 4.01" fill="#fff"/>
  </g>
</svg>
