<svg id="Layer_1" data-name="Layer 1" xmlns="http://www.w3.org/2000/svg" viewBox="0 0 74.2 219.8">
  <title>Light</title>

    <defs>
     <style>
      path {
        animation-name: change-color;
        animation-duration: 3s; 
        animation-iteration-count: infinite; 
        }
    @keyframes change-color {
      to { fill: yellow; }
      }

    </style> 

  </defs>

  <g>
    <polygon points="38.87 136.34 32.2 136.34 15.06 136.34 11.3 136.34 11.3 219.8 59.77 219.8 59.77 136.34 56.01 136.34 38.87 136.34" fill="#004419"/>
    <path d="M121.67,134.33a3.33,3.33,0,1,1,6.67,0v11.42h17.14V59.93L128.67,33.57s-2.33,8.19-24.14,26.36v85.83h17.14Z" transform="translate(-89.46 -9.42)" fill="#2dcddf" opacity="0.5"/>
    <path d="M125,131a3.34,3.34,0,0,0-3.33,3.33v11.42h6.67V134.33A3.34,3.34,0,0,0,125,131Z" transform="translate(-89.46 -9.42)" fill="#2dcddf"/>
    <path d="M125,131a3.34,3.34,0,0,0-3.33,3.33v11.42h6.67V134.33A3.34,3.34,0,0,0,125,131Z" transform="translate(-89.46 -9.42)" fill="#2dcddf" opacity="0.5"/>
    <path d="M90.92,28.53a.88.88,0,1,0-1.15,1.34l9,7.68a.88.88,0,0,0,1.15-1.34Z" transform="translate(-89.46 -9.42)" fill="#2dcddf" opacity="0.66"/>
    <path d="M129.22,23a.89.89,0,0,0,.88-.88V10.3a.88.88,0,0,0-1.77,0V22.1A.89.89,0,0,0,129.22,23Z" transform="translate(-89.46 -9.42)" fill="#2dcddf" opacity="0.66"/>
    <path d="M163.54,29.65a.89.89,0,0,0-1.21-.32l-10.22,5.9a.88.88,0,1,0,.88,1.53l10.22-5.9A.89.89,0,0,0,163.54,29.65Z" transform="translate(-89.46 -9.42)" fill="#2dcddf" opacity="0.66"/>
  </g>
</svg>
