<svg id="Layer_1" data-name="Layer 1" xmlns="http://www.w3.org/2000/svg" viewBox="0 0 148.13 171.26">
  <title>ornament</title>
  <g>
    <path d="M125,47.56a8.32,8.32,0,0,1,7.82,5.57l1.79-5.57L132,39.37H120.51l-5.13,6.22,1.64,8A8.33,8.33,0,0,1,125,47.56Z" transform="translate(-50.93 -39.37)" fill="none"/>
    <path d="M133.3,63v6.16a8.3,8.3,0,0,1-16.6,0V63a74.07,74.07,0,1,0,16.6,0ZM74.94,126.56c-3.1,27.42-1.63,43.18-2.55,43.21-1.06,0-5-21.39-1.1-46.47,2.41-15.52,7.24-28.83,8.09-28.63S77.16,107,74.94,126.56Z" transform="translate(-50.93 -39.37)" fill="#d35fa7"/>
    <path d="M133.3,63V55.86a8.21,8.21,0,0,0-.47-2.73L132,55.75l.85-2.62a8.28,8.28,0,0,0-15.81.5l.43,2.12L117,53.63a8.22,8.22,0,0,0-.32,2.23V63a72.79,72.79,0,0,1,16.6,0Z" transform="translate(-50.93 -39.37)" fill="#d35fa7"/>
    <path d="M125,77.44a8.32,8.32,0,0,0,8.3-8.3V63a72.79,72.79,0,0,0-16.6,0v6.16A8.32,8.32,0,0,0,125,77.44Z" transform="translate(-50.93 -39.37)" fill="#d35fa7"/>
    <path d="M79.38,94.66c-.85-.2-5.68,13.11-8.09,28.63-3.89,25.09,0,46.51,1.1,46.47.91,0-.55-15.8,2.55-43.21C77.16,107,80.18,94.85,79.38,94.66Z" transform="translate(-50.93 -39.37)" fill="#d35fa7" stroke="#f1f2f2" stroke-miterlimit="10" stroke-width="4"/>
  </g>
</svg>
