<svg id="Layer_1" data-name="Layer 1" xmlns="http://www.w3.org/2000/svg" viewBox="0 0 111.99 133.16">
  <title>present</title>
  <g>
    <path d="M120.41,69h9.17A11.79,11.79,0,0,1,125,59.67,11.79,11.79,0,0,1,120.41,69Z" transform="translate(-69 -47.84)" fill="none"/>
    <path d="M117.74,70.58A11.8,11.8,0,0,1,105.93,69H69v47.65h48.74Z" transform="translate(-69 -47.84)" fill="#c80075"/>
    <path d="M144.07,69a11.8,11.8,0,0,1-11.8,1.57v46.07H181V69Z" transform="translate(-69 -47.84)" fill="#c80075"/>
    <rect y="83.33" width="48.74" height="49.82" fill="#c80075"/>
    <rect x="63.26" y="83.33" width="48.74" height="49.82" fill="#c80075"/>
    <path d="M132.26,70.58A11.91,11.91,0,1,0,129.59,69h-9.17a11.68,11.68,0,1,0-2.68,1.57v46.07H69v14.52h48.74V181h14.52V131.17H181V116.65H132.26Zm-3.84-10.91a8.4,8.4,0,1,1,8.4,8.4A8.4,8.4,0,0,1,128.42,59.67Zm-23.65,0a8.4,8.4,0,1,1,8.4,8.4A8.4,8.4,0,0,1,104.77,59.67Z" transform="translate(-69 -47.84)" fill="#ccb405"/>
    <circle cx="44.17" cy="11.83" r="8.4" fill="#fff"/>
    <circle cx="67.82" cy="11.83" r="8.4" fill="#fff"/>
  </g>
</svg>
