<svg id="Layer_1" data-name="Layer 1" xmlns="http://www.w3.org/2000/svg" viewBox="0 0 118.94 113.2">
  <title>star</title>
  <g>
    <path d="M154.8,140.52l29.67-29.05-41.11-5.88L124.9,68.4l-18.29,37.28-41.08,6.06,29.8,28.92L88.4,181.6l36.71-19.41,36.8,19.24Zm-29.72,10.13L99.76,164l4.78-28.23L84,115.86l28.33-4.18L124.93,86l12.73,25.65L166,115.67l-20.46,20,4.9,28.21Z" transform="translate(-65.53 -68.4)" fill="#fff771"/>
    <path d="M166,115.67l-28.35-4.05L124.93,86l-12.62,25.71L84,115.86l20.55,19.94L99.76,164l25.32-13.38,25.38,13.27-4.9-28.21ZM125,141l-15.76,8.33,3-17.58L99.47,119.31l17.64-2.6,7.85-16,7.93,16,17.65,2.52-12.74,12.47,3.05,17.56Z" transform="translate(-65.53 -68.4)" fill="#f2e540"/>
    <polygon points="85 50.79 67.35 48.27 59.43 32.3 51.57 48.3 33.94 50.91 46.73 63.32 43.76 80.9 59.52 72.57 75.32 80.83 72.26 63.26 85 50.79" fill="#e2ce10"/>
    <polygon points="53.39 110.49 66.67 110.49 64.27 96.25 59.58 93.79 54.63 96.41 53.39 110.49" fill="#e2ce10"/>
  </g>
</svg>
